<svg width="15" height="14" viewBox="0 0 15 14" fill="none" xmlns="http://www.w3.org/2000/svg">
<g id="home_icon">
<g id="Home">
<path id="Vector" d="M5.50061 13.1475V11.0007C5.5006 10.4567 5.94297 10.0147 6.4909 10.0113H8.50283C9.05321 10.0113 9.49939 10.4542 9.49939 11.0007V13.1413C9.49938 13.6131 9.88282 13.9966 10.3581 14H11.7307C12.3717 14.0016 12.9871 13.75 13.441 13.3005C13.8949 12.851 14.15 12.2407 14.15 11.6043V5.5061C14.15 4.99197 13.9205 4.5043 13.5232 4.17445L8.86008 0.471988C8.04496 -0.175614 6.88076 -0.154694 6.08977 0.521769L1.5269 4.17445C1.11091 4.49458 0.862281 4.9837 0.849995 5.5061V11.5981C0.849995 12.9246 1.93316 14 3.26932 14H4.6106C4.83942 14.0016 5.05944 13.9126 5.22183 13.7525C5.38422 13.5925 5.47555 13.3747 5.47554 13.1475H5.50061Z" fill="#26273A"/>
</g>
</g>
</svg>
