<svg width="27" height="26" viewBox="0 0 27 26" fill="none" xmlns="http://www.w3.org/2000/svg">
    <path
        d="M23.987 0.51564C23.9604 0.513542 23.9379 0.5 23.9102 0.5H12.4324C10.6664 0.5 9.22925 1.90209 9.22925 3.625V4.6666C9.22925 5.24167 9.70745 5.7084 10.2969 5.7084C10.8863 5.7084 11.3645 5.24167 11.3645 4.6666V3.625C11.3645 3.05108 11.8439 2.5834 12.4324 2.5834H17.4068L17.081 2.68964C16.2163 2.98127 15.6355 3.77606 15.6355 4.6666V20.2916H12.4324C11.8439 20.2916 11.3645 19.8239 11.3645 19.25V17.1666C11.3645 16.5917 10.8863 16.125 10.2969 16.125C9.70745 16.125 9.22925 16.5917 9.22925 17.1666V19.25C9.22925 20.9729 10.6664 22.375 12.4324 22.375H15.6355V23.4166C15.6355 24.5656 16.5931 25.5 17.7708 25.5C17.9993 25.5 18.2161 25.4678 18.4509 25.3968L24.8658 23.3104C25.7317 23.0187 26.3125 22.2239 26.3125 21.3334V2.5834C26.3125 1.3688 25.2394 0.416649 23.987 0.51564V0.51564Z"
        fill="white" />
    <path
        d="M1.02135 11.7886L5.39762 15.8497C5.71054 16.1401 6.17174 16.2185 6.56688 16.0472C6.96086 15.8762 7.21144 15.4896 7.20065 15.069L7.12051 11.945L11.3901 11.8407C11.9792 11.8263 12.4455 11.3481 12.4307 10.7734C12.416 10.1985 11.9258 9.7436 11.3367 9.75798L7.06709 9.86222L6.98695 6.7382C6.97616 6.31757 6.70609 5.94391 6.30383 5.79213C5.9004 5.64057 5.4438 5.7412 5.14616 6.04649L0.983577 10.3162C0.576555 10.7335 0.593434 11.3915 1.02135 11.7886Z"
        fill="white" />
</svg>
    