<svg width="18" height="18" viewBox="0 0 18 18" fill="none" xmlns="http://www.w3.org/2000/svg">
<path opacity="0.4" d="M12.906 0H5.103C2.052 0 0 2.142 0 5.328V12.681C0 15.858 2.052 18 5.103 18H12.906C15.957 18 18 15.858 18 12.681V5.328C18 2.142 15.957 0 12.906 0Z" fill="#26273A"/>
<path d="M5.05509 8C5.63724 8 6.11018 8.44862 6.11018 8.99916C6.11018 9.55054 5.63724 10 5.05509 10C4.47294 10 4 9.55054 4 8.99916C4 8.44862 4.47294 8 5.05509 8ZM8.99978 8C9.58193 8 10.0549 8.44862 10.0549 8.99916C10.0549 9.55054 9.58193 10 8.99978 10C8.41763 10 7.94469 9.55054 7.94469 8.99916C7.94469 8.44862 8.41763 8 8.99978 8ZM12.9449 8C13.5271 8 14 8.44862 14 8.99916C14 9.55054 13.5271 10 12.9449 10C12.3628 10 11.8898 9.55054 11.8898 8.99916C11.8898 8.44862 12.3628 8 12.9449 8Z" fill="#26273A"/>
</svg>
