<svg width="15" height="14" viewBox="0 0 15 14" fill="none" xmlns="http://www.w3.org/2000/svg">
<g id="star_icon">
<g id="Star">
<path id="Fill-1" opacity="0.4" d="M8.0878 0.452137L9.72836 3.74897C9.84923 3.98783 10.0799 4.1537 10.346 4.19056L14.031 4.72726C14.2462 4.75748 14.4415 4.87102 14.5734 5.04426C14.7039 5.2153 14.7599 5.43204 14.7282 5.64509C14.7024 5.82202 14.6191 5.98569 14.4916 6.11101L11.8214 8.69938C11.6261 8.88 11.5377 9.14761 11.5849 9.40932L12.2423 13.0482C12.3123 13.4876 12.0212 13.9019 11.5849 13.9852C11.405 14.014 11.2208 13.9838 11.0586 13.9012L7.77163 12.1886C7.52768 12.0655 7.23951 12.0655 6.99557 12.1886L3.70855 13.9012C3.30467 14.1157 2.80425 13.9697 2.57946 13.5716C2.49618 13.4131 2.4667 13.2325 2.49397 13.0563L3.15137 9.41669C3.19854 9.15572 3.10936 8.88664 2.9148 8.70602L0.244644 6.11912C-0.0730032 5.81244 -0.0825842 5.30745 0.223271 4.98971C0.229904 4.98307 0.237274 4.9757 0.244644 4.96833C0.371408 4.83931 0.53797 4.75748 0.717798 4.7361L4.4028 4.19867C4.66812 4.16108 4.8988 3.99668 5.02041 3.75634L6.60201 0.452137C6.74278 0.169045 7.03463 -0.00714949 7.35154 0.000222678H7.4503C7.7252 0.0333974 7.96472 0.203695 8.0878 0.452137Z" fill="white"/>
<path id="Fill-4" d="M7.36253 12.0968C7.21981 12.1012 7.08076 12.1396 6.95569 12.2082L3.68474 13.9168C3.28452 14.1078 2.80557 13.9596 2.58118 13.5769C2.49805 13.4205 2.46788 13.2413 2.49584 13.0658L3.14915 9.4339C3.19329 9.1699 3.10501 8.90147 2.91299 8.71563L0.241638 6.1294C-0.0754513 5.81894 -0.0813369 5.30936 0.229131 4.99152C0.233545 4.9871 0.237224 4.98341 0.241638 4.97972C0.368179 4.85436 0.531506 4.77176 0.70734 4.74595L4.39543 4.20319C4.66249 4.16927 4.89424 4.00261 5.01195 3.76072L6.61506 0.414929C6.76735 0.145024 7.05942 -0.0157397 7.36842 0.00122159C7.36254 0.220243 7.36253 11.9479 7.36253 12.0968Z" fill="white"/>
</g>
</g>
</svg>
