<svg width="52" height="52" viewBox="0 0 52 52" fill="none" xmlns="http://www.w3.org/2000/svg">
<g clip-path="url(#clip0_436_900)">
<path d="M0 24C0 12.6863 0 7.02944 3.51472 3.51472C7.02944 0 12.6863 0 24 0H28C39.3137 0 44.9706 0 48.4853 3.51472C52 7.02944 52 12.6863 52 24V28C52 39.3137 52 44.9706 48.4853 48.4853C44.9706 52 39.3137 52 28 52H24C12.6863 52 7.02944 52 3.51472 48.4853C0 44.9706 0 39.3137 0 28V24Z" fill="#26273A"/>
<g filter="url(#filter0_d_436_900)">
<path d="M15 24C15 21.1716 15 19.7574 15.8787 18.8787C16.7574 18 18.1716 18 21 18H31C33.8284 18 35.2426 18 36.1213 18.8787C37 19.7574 37 21.1716 37 24V27C37 29.8284 37 31.2426 36.1213 32.1213C35.2426 33 33.8284 33 31 33H21C18.1716 33 16.7574 33 15.8787 32.1213C15 31.2426 15 29.8284 15 27V24Z" fill="white" fill-opacity="0.4"/>
<path d="M15 22H37V25H15V22Z" fill="white"/>
</g>
<path d="M32 29.5C32 29.0341 32 28.8011 32.0761 28.6173C32.1776 28.3723 32.3723 28.1776 32.6173 28.0761C32.8011 28 33.0341 28 33.5 28C33.9659 28 34.1989 28 34.3827 28.0761C34.6277 28.1776 34.8224 28.3723 34.9239 28.6173C35 28.8011 35 29.0341 35 29.5C35 29.9659 35 30.1989 34.9239 30.3827C34.8224 30.6277 34.6277 30.8224 34.3827 30.9239C34.1989 31 33.9659 31 33.5 31C33.0341 31 32.8011 31 32.6173 30.9239C32.3723 30.8224 32.1776 30.6277 32.0761 30.3827C32 30.1989 32 29.9659 32 29.5Z" fill="white"/>
</g>
<defs>
<filter id="filter0_d_436_900" x="13" y="18" width="26" height="19" filterUnits="userSpaceOnUse" color-interpolation-filters="sRGB">
<feFlood flood-opacity="0" result="BackgroundImageFix"/>
<feColorMatrix in="SourceAlpha" type="matrix" values="0 0 0 0 0 0 0 0 0 0 0 0 0 0 0 0 0 0 127 0" result="hardAlpha"/>
<feOffset dy="2"/>
<feGaussianBlur stdDeviation="1"/>
<feComposite in2="hardAlpha" operator="out"/>
<feColorMatrix type="matrix" values="0 0 0 0 0.188235 0 0 0 0 0.482353 0 0 0 0 0.964706 0 0 0 0.1 0"/>
<feBlend mode="normal" in2="BackgroundImageFix" result="effect1_dropShadow_436_900"/>
<feBlend mode="normal" in="SourceGraphic" in2="effect1_dropShadow_436_900" result="shape"/>
</filter>
<clipPath id="clip0_436_900">
<rect width="52" height="52" fill="white"/>
</clipPath>
</defs>
</svg>
