<svg width="20" height="15" viewBox="0 0 20 15" fill="none" xmlns="http://www.w3.org/2000/svg">
<g id="Transfers_icon">
<g id="Arrow---Left">
<g id="Group 10764">
<g id="Group 10762">
<path id="Fill-1" opacity="0.4" d="M9.30962 2.62991L18.0056 2.36792C18.6704 2.36792 19.2094 2.91219 19.2094 3.58349C19.2094 4.2548 18.6704 4.79907 18.0056 4.79907L9.30962 4.53708C8.78807 4.53708 8.36524 4.11013 8.36524 3.58349C8.36524 3.05598 8.78807 2.62991 9.30962 2.62991Z" fill="#26273A"/>
<path id="Fill-4" d="M1.00188 2.90846C1.03449 2.87359 1.15632 2.72623 1.27077 2.60386C1.93839 1.83744 3.68157 0.584192 4.59347 0.200651C4.73192 0.139469 5.08203 0.00921023 5.2697 0C5.44876 0 5.61982 0.0440775 5.78287 0.130917C5.98654 0.252624 6.14899 0.444723 6.23882 0.671031C6.29605 0.827605 6.38588 1.29798 6.38588 1.30654C6.4751 1.82034 6.52371 2.65584 6.52371 3.57949C6.52371 4.45841 6.4751 5.2597 6.40188 5.78205C6.39388 5.79126 6.30404 6.3748 6.20621 6.57479C6.02715 6.94057 5.67704 7.16688 5.30231 7.16688H5.2697C5.02542 7.15832 4.51225 6.93136 4.51225 6.92346C3.64896 6.53992 1.947 5.3472 1.26277 4.55446C1.26277 4.55446 1.06956 4.35052 0.98588 4.22355C0.855434 4.04066 0.790211 3.81435 0.790211 3.58804C0.790211 3.33542 0.863433 3.10056 1.00188 2.90846Z" fill="#26273A"/>
</g>
<g id="Group 10763">
<path id="Fill-1_2" opacity="0.4" d="M10.6901 11.9485L1.99415 12.2105C1.32932 12.2105 0.790298 11.6662 0.790298 10.9949C0.790298 10.3236 1.32932 9.77933 1.99415 9.77933L10.6901 10.0413C11.2116 10.0413 11.6345 10.4683 11.6345 10.9949C11.6345 11.5224 11.2116 11.9485 10.6901 11.9485Z" fill="#26273A"/>
<path id="Fill-4_2" d="M18.9978 11.6699C18.9652 11.7048 18.8434 11.8522 18.7289 11.9745C18.0613 12.741 16.3181 13.9942 15.4062 14.3777C15.2678 14.4389 14.9177 14.5692 14.73 14.5784C14.551 14.5784 14.3799 14.5343 14.2168 14.4475C14.0132 14.3258 13.8507 14.1337 13.7609 13.9074C13.7037 13.7508 13.6138 13.2804 13.6138 13.2719C13.5246 12.7581 13.476 11.9226 13.476 10.9989C13.476 10.12 13.5246 9.3187 13.5978 8.79635C13.6058 8.78714 13.6957 8.2036 13.7935 8.00361C13.9726 7.63783 14.3227 7.41152 14.6974 7.41152L14.73 7.41152C14.9743 7.42008 15.4875 7.64704 15.4875 7.65494C16.3507 8.03848 18.0527 9.2312 18.7369 10.0239C18.7369 10.0239 18.9301 10.2279 19.0138 10.3549C19.1443 10.5377 19.2095 10.764 19.2095 10.9904C19.2095 11.243 19.1363 11.4778 18.9978 11.6699Z" fill="#26273A"/>
</g>
</g>
</g>
</g>
</svg>
