<svg width="14" height="13" viewBox="0 0 14 13" fill="none" xmlns="http://www.w3.org/2000/svg">
<g id="transfer_icon">
<g id="Arrow---Left">
<g id="Group 10764">
<g id="Group 10762">
<path id="Fill-1" opacity="0.4" d="M6.49451 1.83473L12.5613 1.65195C13.0251 1.65195 13.4011 2.03166 13.4011 2.5C13.4011 2.96833 13.0251 3.34805 12.5613 3.34805L6.49451 3.16527C6.13065 3.16527 5.83566 2.8674 5.83566 2.5C5.83566 2.13198 6.13065 1.83473 6.49451 1.83473Z" fill="white"/>
<path id="Fill-4" d="M0.69859 2.0291C0.721342 2.00477 0.806338 1.90196 0.886184 1.8166C1.35195 1.2819 2.56809 0.407564 3.20428 0.139985C3.30087 0.0973013 3.54512 0.00642556 3.67605 0C3.80097 0 3.92031 0.0307509 4.03407 0.0913347C4.17616 0.176244 4.28949 0.310263 4.35216 0.468148C4.39209 0.577382 4.45476 0.905544 4.45476 0.911511C4.51701 1.26997 4.55092 1.85285 4.55092 2.49725C4.55092 3.11043 4.51701 3.66945 4.46592 4.03387C4.46034 4.0403 4.39767 4.4474 4.32941 4.58693C4.20449 4.84211 3.96023 5 3.6988 5H3.67605C3.50563 4.99403 3.14761 4.83569 3.14761 4.83018C2.54534 4.5626 1.35796 3.73049 0.880603 3.17744C0.880603 3.17744 0.74581 3.03516 0.687429 2.94658C0.596422 2.81898 0.550919 2.6611 0.550919 2.50321C0.550919 2.32697 0.602003 2.16312 0.69859 2.0291Z" fill="white"/>
</g>
<g id="Group 10763">
<path id="Fill-1_2" opacity="0.4" d="M7.45755 10.3128L1.39079 10.4956C0.92697 10.4956 0.550919 10.1159 0.550919 9.64755C0.550919 9.17922 0.92697 8.7995 1.39079 8.7995L7.45755 8.98228C7.82141 8.98228 8.1164 9.28015 8.1164 9.64755C8.1164 10.0156 7.82141 10.3128 7.45755 10.3128Z" fill="white"/>
<path id="Fill-4_2" d="M13.2535 10.1185C13.2307 10.1428 13.1457 10.2456 13.0659 10.331C12.6001 10.8657 11.384 11.74 10.7478 12.0076C10.6512 12.0503 10.4069 12.1411 10.276 12.1476C10.1511 12.1476 10.0317 12.1168 9.91799 12.0562C9.7759 11.9713 9.66257 11.8373 9.59989 11.6794C9.55997 11.5702 9.4973 11.242 9.4973 11.236C9.43505 10.8776 9.40114 10.2947 9.40114 9.65031C9.40114 9.03712 9.43505 8.4781 9.48613 8.11368C9.49172 8.10725 9.55439 7.70015 9.62265 7.56062C9.74756 7.30544 9.99182 7.14755 10.2533 7.14755L10.276 7.14755C10.4464 7.15352 10.8044 7.31186 10.8044 7.31737C11.4067 7.58495 12.5941 8.41706 13.0715 8.97012C13.0715 8.97012 13.2062 9.1124 13.2646 9.20098C13.3556 9.32857 13.4011 9.48645 13.4011 9.64434C13.4011 9.82058 13.3501 9.98444 13.2535 10.1185Z" fill="white"/>
</g>
</g>
</g>
</g>
</svg>
